<?xml version="1.0" encoding="UTF-8" standalone="no"?>
<svg
   xmlns:dc="http://purl.org/dc/elements/1.1/"
   xmlns:cc="http://creativecommons.org/ns#"
   xmlns:rdf="http://www.w3.org/1999/02/22-rdf-syntax-ns#"
   xmlns:svg="http://www.w3.org/2000/svg"
   xmlns="http://www.w3.org/2000/svg"
   xmlns:sodipodi="http://sodipodi.sourceforge.net/DTD/sodipodi-0.dtd"
   xmlns:inkscape="http://www.inkscape.org/namespaces/inkscape"
   width="75.590553"
   height="75.590553"
   viewBox="0 0 20 20"
   version="1.1"
   id="svg849"
   inkscape:version="1.0.2-2 (e86c870879, 2021-01-15)"
   sodipodi:docname="ball-green.svg">
  <defs
     id="defs843" />
  <sodipodi:namedview
     id="base"
     pagecolor="#ffffff"
     bordercolor="#666666"
     borderopacity="1.0"
     inkscape:pageopacity="0.0"
     inkscape:pageshadow="2"
     inkscape:zoom="2.8"
     inkscape:cx="25.235672"
     inkscape:cy="10.558768"
     inkscape:document-units="mm"
     inkscape:current-layer="layer1"
     inkscape:document-rotation="0"
     showgrid="false"
     units="px"
     inkscape:window-width="1024"
     inkscape:window-height="705"
     inkscape:window-x="-8"
     inkscape:window-y="-8"
     inkscape:window-maximized="1" />
  <metadata
     id="metadata846">
    <rdf:RDF>
      <cc:Work
         rdf:about="">
        <dc:format>image/svg+xml</dc:format>
        <dc:type
           rdf:resource="http://purl.org/dc/dcmitype/StillImage" />
        <dc:title></dc:title>
      </cc:Work>
    </rdf:RDF>
  </metadata>
  <g
     inkscape:label="Capa 1"
     inkscape:groupmode="layer"
     id="layer1">
    <circle
       style="fill:#09ea00;stroke:#000000;stroke-width:1.31506;stroke-linecap:round;stroke-opacity:0;paint-order:stroke fill markers;fill-opacity:1"
       id="path851"
       sodipodi:type="arc"
       sodipodi:cx="9.8423185"
       sodipodi:cy="10.009697"
       sodipodi:rx="9.6594276"
       sodipodi:ry="9.8511448"
       sodipodi:start="4.6529954"
       sodipodi:end="4.6440419"
       sodipodi:open="true"
       sodipodi:arc-type="arc"
       d="M 9.2689478,0.1759225 A 9.6594276,9.8511448 0 0 1 19.483406,9.4029359 9.6594276,9.8511448 0 0 1 10.45885,19.840755 9.6594276,9.8511448 0 0 1 0.2039908,10.660469 9.6594276,9.8511448 0 0 1 9.1826387,0.18155216" />
    <path
       style="fill:none;stroke:#000000;stroke-width:0.264583px;stroke-linecap:butt;stroke-linejoin:miter;stroke-opacity:0.298387"
       d="M 13.843378,18.851562 10.441592,18.615327 C 8.5097898,18.181539 6.6633768,17.393749 4.9136904,15.119047 3.8066269,13.37554 3.2764826,11.102361 3.2600446,8.5989583 3.1662943,7.0713045 3.6186098,5.6381447 4.0159969,4.1104909 4.3208519,2.9602396 5.4562838,1.6201689 6.8854142,0.97953637 c 3.2895318,-1.49984029 -0.7433301,0.37185703 0,0"
       id="path1414"
       sodipodi:nodetypes="ccccccc" />
    <path
       style="fill:#06a100;fill-opacity:1;stroke:#000000;stroke-width:0.359428;stroke-linecap:round;stroke-opacity:0.0201613;paint-order:stroke fill markers"
       d="M 8.6769791,19.741148 C 2.8780663,18.819434 -0.88952491,13.22207 0.5410772,7.6539549 1.300942,4.6964486 3.2418965,2.3570087 5.9911039,1.0850168 6.4328212,0.88064495 8.0236846,0.30390012 8.1992885,0.27293937 8.486463,0.22230757 7.4165739,0.7244329 6.810689,1.011395 5.9441365,1.4218158 4.4541585,2.6202749 4.2142949,3.5497269 4.1001192,3.9921485 3.7949306,4.3822672 3.576999,5.2506197 3.1408203,6.9885808 3.0574334,7.8387286 3.1673144,9.4274385 c 0.1523931,2.2033675 0.5381033,3.7307195 1.3124858,5.1972395 0.4249471,0.80476 1.8380259,2.272653 2.7547846,2.861644 1.3502,0.867464 2.673718,1.254115 4.7682192,1.39298 0.881703,0.05846 2.229118,-0.17434 2.229118,-0.141975 0,0.07563 -1.16604,0.575491 -2.013777,0.802449 -0.664333,0.177857 -2.8920872,0.30454 -3.5411659,0.201372 z"
       id="path1416"
       sodipodi:nodetypes="ssssssssssssss" />
  </g>
</svg>
