<?xml version="1.0" encoding="UTF-8" standalone="no"?>
<svg
   xmlns:dc="http://purl.org/dc/elements/1.1/"
   xmlns:cc="http://creativecommons.org/ns#"
   xmlns:rdf="http://www.w3.org/1999/02/22-rdf-syntax-ns#"
   xmlns:svg="http://www.w3.org/2000/svg"
   xmlns="http://www.w3.org/2000/svg"
   xmlns:xlink="http://www.w3.org/1999/xlink"
   xmlns:sodipodi="http://sodipodi.sourceforge.net/DTD/sodipodi-0.dtd"
   xmlns:inkscape="http://www.inkscape.org/namespaces/inkscape"
   width="800"
   height="500"
   viewBox="0 0 211.66666 132.29167"
   version="1.1"
   id="svg38"
   inkscape:version="1.0.2-2 (e86c870879, 2021-01-15)"
   sodipodi:docname="winnerRed.svg">
  <defs
     id="defs32">
    <linearGradient
       inkscape:collect="always"
       id="linearGradient871">
      <stop
         style="stop-color:#00d6c6;stop-opacity:1"
         offset="0"
         id="stop867" />
      <stop
         style="stop-color:#0c84ff;stop-opacity:1"
         offset="1"
         id="stop869" />
    </linearGradient>
    <linearGradient
       inkscape:collect="always"
       xlink:href="#linearGradient871"
       id="linearGradient873"
       x1="-4.8809065e-07"
       y1="66.115098"
       x2="211.76314"
       y2="66.115098"
       gradientUnits="userSpaceOnUse" />
  </defs>
  <sodipodi:namedview
     id="base"
     pagecolor="#ffffff"
     bordercolor="#666666"
     borderopacity="1.0"
     inkscape:pageopacity="1"
     inkscape:pageshadow="2"
     inkscape:zoom="0.49497475"
     inkscape:cx="374.13871"
     inkscape:cy="402.83186"
     inkscape:document-units="mm"
     inkscape:current-layer="layer1"
     inkscape:document-rotation="0"
     showgrid="true"
     units="in"
     inkscape:pagecheckerboard="true"
     inkscape:window-width="1024"
     inkscape:window-height="705"
     inkscape:window-x="-8"
     inkscape:window-y="-8"
     inkscape:window-maximized="1" />
  <metadata
     id="metadata35">
    <rdf:RDF>
      <cc:Work
         rdf:about="">
        <dc:format>image/svg+xml</dc:format>
        <dc:type
           rdf:resource="http://purl.org/dc/dcmitype/StillImage" />
        <dc:title></dc:title>
      </cc:Work>
    </rdf:RDF>
  </metadata>
  <g
     inkscape:label="Capa 1"
     inkscape:groupmode="layer"
     id="layer1">
    <rect
       style="fill:url(#linearGradient873);fill-opacity:1;stroke:#000000;stroke-width:0;stroke-linecap:round;paint-order:markers stroke fill"
       id="rect42"
       width="211.76314"
       height="132.36383"
       x="1.1909341e-08"
       y="-0.066817403"
       ry="0"
       rx="0" />
    <text
       xml:space="preserve"
       style="font-style:normal;font-variant:normal;font-weight:normal;font-stretch:normal;font-size:40.7313px;line-height:1.25;font-family:'Gill Sans Ultra Bold Condensed';-inkscape-font-specification:'Gill Sans Ultra Bold Condensed, Normal';font-variant-ligatures:normal;font-variant-caps:normal;font-variant-numeric:normal;font-variant-east-asian:normal;word-spacing:0px;fill:#ffffff;stroke:#003d7b;stroke-width:1.053;stroke-miterlimit:4;stroke-dasharray:none;stroke-opacity:1"
       x="32.426888"
       y="39.576756"
       id="text877"
       transform="scale(1.0203586,0.98004761)"><tspan
         sodipodi:role="line"
         id="tspan875"
         x="32.426888"
         y="39.576756"
         style="font-style:normal;font-variant:normal;font-weight:normal;font-stretch:normal;font-size:40.7313px;font-family:'Gill Sans Ultra Bold Condensed';-inkscape-font-specification:'Gill Sans Ultra Bold Condensed, Normal';font-variant-ligatures:normal;font-variant-caps:normal;font-variant-numeric:normal;font-variant-east-asian:normal;fill:#ffffff;stroke:#003d7b;stroke-width:1.053;stroke-miterlimit:4;stroke-dasharray:none;stroke-opacity:1">WINNER</tspan></text>
    <circle
       style="fill:#f50000;fill-opacity:1;stroke:#f50000;stroke-width:1.053;stroke-linecap:round;stroke-miterlimit:4;stroke-dasharray:none;stroke-opacity:1;paint-order:markers stroke fill"
       id="path879"
       sodipodi:type="arc"
       sodipodi:cx="56.358917"
       sodipodi:cy="100.73912"
       sodipodi:rx="29.666916"
       sodipodi:ry="28.597837"
       sodipodi:start="4.6529954"
       sodipodi:end="4.6467471"
       sodipodi:open="true"
       sodipodi:arc-type="arc"
       d="M 54.597929,72.191709 A 29.666916,28.597837 0 0 1 85.970735,98.997 29.666916,28.597837 0 0 1 58.212418,129.28109 29.666916,28.597837 0 0 1 26.75289,102.57041 29.666916,28.597837 0 0 1 54.412923,72.202873" />
    <path
       style="fill:#f50000;fill-opacity:1;stroke:#ffffff;stroke-width:0.264583px;stroke-linecap:butt;stroke-linejoin:miter;stroke-opacity:0.00403227"
       d="m 58.660167,71.873019 c -4.788843,2.829463 -6.413264,-0.07602 -15.548735,8.314893 -3.261198,3.134633 -6.81724,7.673116 -5.579404,19.600393 0.779619,7.197935 4.335373,14.371935 9.165921,19.465785 3.31779,3.56985 3.495959,3.72548 5.150894,5.06701 l 7.132631,4.79872 1.687121,0.46772 c 2.475855,-0.46732 4.682383,-1.65287 6.781931,-3.12371 34.187954,-25.23593 5.30157,-49.277608 -1.947368,-51.964721 -2.338578,-0.875363 -4.591516,-1.750727 -6.842991,-2.62609 z"
       id="path881"
       sodipodi:nodetypes="cccccccccc" />
    <path
       style="fill:#840000;fill-opacity:0.471774;stroke:#000000;stroke-width:0.531844;stroke-linecap:round;stroke-miterlimit:4;stroke-dasharray:none;stroke-opacity:0.157258;paint-order:markers stroke fill"
       d="m 53.572354,129.66732 c -1.951648,-0.16656 -4.96715,-0.79569 -6.948995,-1.44981 -2.118561,-0.69924 -5.530019,-2.36279 -7.366357,-3.59211 -5.504043,-3.68464 -9.602679,-9.03463 -11.600527,-15.1423 -0.969721,-2.96456 -1.368594,-5.52643 -1.368769,-8.79132 -1.37e-4,-2.612238 0.215321,-4.393768 0.824992,-6.821465 2.204842,-8.779635 8.788519,-16.281705 17.394399,-19.82084 3.742476,-1.539081 6.942619,-2.193295 11.270225,-2.304013 2.437885,-0.06237 2.649855,-0.05004 2.412878,0.140341 -0.42212,0.339127 -2.172058,0.962326 -3.955779,1.408766 -2.605205,0.652044 -3.992602,1.246118 -6.074262,2.600973 -2.597076,1.690314 -6.228757,4.972227 -7.582122,6.851888 -2.635795,3.660796 -3.55356,7.326304 -3.404179,13.596096 0.137271,5.761464 1.130448,9.795654 3.650363,14.827444 1.838347,3.67083 4.176424,6.74399 8.200472,10.77868 2.173973,2.17973 2.268509,2.25491 5.950825,4.7328 2.057958,1.38484 3.937186,2.58276 4.176056,2.66205 0.238877,0.0793 0.434317,0.18052 0.434317,0.22494 0,0.23544 -3.696569,0.29561 -6.013537,0.0979 z"
       id="path885" />
    <path
       style="fill:#f85353;fill-opacity:1;stroke:#f85353;stroke-width:0.376071;stroke-linecap:round;stroke-miterlimit:4;stroke-dasharray:none;stroke-opacity:1;paint-order:markers stroke fill"
       d="m 64.796481,128.2815 c 1.390541,-0.72595 2.252438,-1.28484 3.823509,-2.47932 5.31027,-4.03739 9.627086,-8.73723 12.143831,-13.22131 1.605461,-2.86045 2.692865,-6.1225 3.071202,-9.21316 0.13659,-1.11584 0.13531,-3.921942 -0.002,-5.055449 -0.599517,-4.937971 -2.789595,-9.800595 -6.485014,-14.398606 -2.785422,-3.465761 -6.657081,-6.843871 -10.003383,-8.728178 -1.000634,-0.563462 -1.074674,-0.594408 -5.0554,-2.112854 -3.330152,-1.270286 -3.472112,-1.38066 -1.387254,-1.07854 6.967091,1.009608 13.642485,4.580181 18.278448,9.776878 3.931076,4.406554 6.274884,9.536449 7.125838,15.596359 0.1936,1.378657 0.16547,5.69841 -0.0465,7.13431 -0.335797,2.27516 -0.938024,4.557 -1.733268,6.56734 -0.953714,2.41091 -2.693125,5.402 -4.341156,7.46503 -0.911894,1.14152 -3.497579,3.70889 -4.667053,4.634 -2.251208,1.78079 -4.884943,3.32007 -7.464988,4.36288 -1.367554,0.55274 -4.057036,1.40393 -4.409696,1.39561 -0.0433,-0.001 0.475607,-0.29127 1.153144,-0.64499 z"
       id="path887" />
    <path
       style="fill:#ffff00;stroke:#000000;stroke-width:0.665;stroke-linecap:butt;stroke-linejoin:miter;stroke-miterlimit:4;stroke-dasharray:none;stroke-opacity:1"
       d="M 31.796435,88.496145 79.834377,88.183019 88.613936,54.755334 69.149227,67.206295 55.316135,42.774061 42.044395,68.594062 23.303105,52.525465 Z"
       id="path889"
       sodipodi:nodetypes="cccccccc" />
    <circle
       style="fill:#ff00ff;fill-opacity:1;stroke:#ffffff;stroke-width:0.665001;stroke-linecap:round;stroke-miterlimit:4;stroke-dasharray:none;stroke-opacity:0.00403227;paint-order:markers stroke fill"
       id="path893"
       sodipodi:type="arc"
       sodipodi:cx="36.588043"
       sodipodi:cy="80.735718"
       sodipodi:rx="3.5907736"
       sodipodi:ry="3.5907736"
       sodipodi:start="4.6529954"
       sodipodi:end="4.6467471"
       sodipodi:open="true"
       sodipodi:arc-type="arc"
       d="m 36.3749,77.151276 a 3.5907736,3.5907736 0 0 1 3.797248,3.365699 3.5907736,3.5907736 0 0 1 -3.359764,3.802501 3.5907736,3.5907736 0 0 1 -3.807745,-3.35382 3.5907736,3.5907736 0 0 1 3.347868,-3.812979" />
    <path
       style="fill:none;stroke:#000000;stroke-width:0.264583px;stroke-linecap:butt;stroke-linejoin:miter;stroke-opacity:0.241935"
       d="M 55.316135,42.774061 44.049092,88.110637"
       id="path926"
       sodipodi:nodetypes="cc" />
    <path
       style="fill:#c2c200;fill-opacity:1;stroke:#c2c200;stroke-width:0.475001;stroke-linecap:round;stroke-miterlimit:4;stroke-dasharray:none;stroke-opacity:1;paint-order:markers stroke fill"
       d="m 28.132278,71.080998 c -2.205413,-9.345451 -3.977484,-17.024082 -3.937934,-17.063632 0.03955,-0.03955 4.094205,3.375885 9.010354,7.58985 l 8.938447,7.661754 0.399826,-0.708988 c 0.219903,-0.389943 2.903058,-5.585682 5.962565,-11.546086 3.05951,-5.960401 5.584885,-10.765424 5.611955,-10.677826 0.0271,0.0876 -2.268388,9.471657 -5.101053,20.853466 l -5.150305,20.694197 -5.862007,0.09449 -5.862011,0.09449 z m 9.930096,13.015764 c 0.382645,-0.159879 0.85671,-0.436274 1.053475,-0.614211 1.145056,-1.035484 1.431698,-3.269848 0.601268,-4.686866 -0.627499,-1.070748 -2.177475,-1.870094 -3.36637,-1.736088 -2.351654,0.265065 -3.82375,2.25315 -3.322973,4.487715 0.499562,2.229146 2.896375,3.442858 5.0346,2.54945 z"
       id="path928" />
    <path
       style="fill:#ffffa3;fill-opacity:1;stroke:#000000;stroke-width:0.208374px;stroke-linecap:butt;stroke-linejoin:miter;stroke-opacity:0"
       d="m 55.048865,42.907698 14.720649,44.985578 8.711319,-0.04115 C 68.154595,69.494476 59.117288,54.640805 55.316135,42.774061"
       id="path930-9"
       sodipodi:nodetypes="cccc" />
    <path
       style="fill:#ffffff;fill-opacity:0.63709676;stroke:#000000;stroke-width:0.264583px;stroke-linecap:butt;stroke-linejoin:miter;stroke-opacity:0"
       d="m 55.048864,42.907698 0.362314,45.079328 11.162557,-0.02362 z"
       id="path972"
       sodipodi:nodetypes="cccc" />
    <circle
       style="fill:#ff00ff;fill-opacity:1;stroke:#ffffff;stroke-width:0.665001;stroke-linecap:round;stroke-miterlimit:4;stroke-dasharray:none;stroke-opacity:0.00403227;paint-order:markers stroke fill"
       id="path893-3"
       sodipodi:type="arc"
       sodipodi:cx="54.250347"
       sodipodi:cy="81.378197"
       sodipodi:rx="3.5907736"
       sodipodi:ry="3.5907736"
       sodipodi:start="4.6529954"
       sodipodi:end="4.6467471"
       sodipodi:open="true"
       sodipodi:arc-type="arc"
       d="m 54.037204,77.793755 a 3.5907736,3.5907736 0 0 1 3.797248,3.365699 3.5907736,3.5907736 0 0 1 -3.359764,3.802501 3.5907736,3.5907736 0 0 1 -3.807745,-3.35382 3.5907736,3.5907736 0 0 1 3.347868,-3.812979" />
    <circle
       style="fill:#ff00ff;fill-opacity:1;stroke:#ffffff;stroke-width:0.665001;stroke-linecap:round;stroke-miterlimit:4;stroke-dasharray:none;stroke-opacity:0.00403227;paint-order:markers stroke fill"
       id="path893-1"
       sodipodi:type="arc"
       sodipodi:cx="71.900879"
       sodipodi:cy="80.715393"
       sodipodi:rx="3.5907736"
       sodipodi:ry="3.5907736"
       sodipodi:start="4.6529954"
       sodipodi:end="4.6467471"
       sodipodi:open="true"
       sodipodi:arc-type="arc"
       d="m 71.687735,77.130951 a 3.5907736,3.5907736 0 0 1 3.797249,3.3657 3.5907736,3.5907736 0 0 1 -3.359764,3.802501 3.5907736,3.5907736 0 0 1 -3.807745,-3.35382 3.5907736,3.5907736 0 0 1 3.347868,-3.812979" />
    <path
       style="fill:#c2c200;stroke:#000000;stroke-width:0.264583px;stroke-linecap:butt;stroke-linejoin:miter;stroke-opacity:0;fill-opacity:1"
       d="M 78.480832,87.852125 88.613934,54.755332 79.834377,88.183018 Z"
       id="path1034" />
  </g>
</svg>
